<svg width="45" height="45" viewBox="0 0 45 45" fill="none" xmlns="http://www.w3.org/2000/svg">
<circle cx="22.5" cy="22.5" r="22.5" fill="#F3F3F3"/>
<path d="M23.0001 29.667C23.3779 29.667 23.6945 29.5392 23.9501 29.2837C24.2056 29.0281 24.3334 28.7114 24.3334 28.3337C24.3334 27.9559 24.2056 27.6392 23.9501 27.3837C23.6945 27.1281 23.3779 27.0003 23.0001 27.0003C22.6223 27.0003 22.3056 27.1281 22.0501 27.3837C21.7945 27.6392 21.6667 27.9559 21.6667 28.3337C21.6667 28.7114 21.7945 29.0281 22.0501 29.2837C22.3056 29.5392 22.6223 29.667 23.0001 29.667ZM21.6667 24.3337H24.3334V16.3337H21.6667V24.3337ZM23.0001 36.3337C21.1556 36.3337 19.4223 35.9837 17.8001 35.2837C16.1779 34.5837 14.7667 33.6337 13.5667 32.4337C12.3667 31.2337 11.4167 29.8225 10.7167 28.2003C10.0167 26.5781 9.66675 24.8448 9.66675 23.0003C9.66675 21.1559 10.0167 19.4225 10.7167 17.8003C11.4167 16.1781 12.3667 14.767 13.5667 13.567C14.7667 12.367 16.1779 11.417 17.8001 10.717C19.4223 10.017 21.1556 9.66699 23.0001 9.66699C24.8445 9.66699 26.5779 10.017 28.2001 10.717C29.8223 11.417 31.2334 12.367 32.4334 13.567C33.6334 14.767 34.5834 16.1781 35.2834 17.8003C35.9834 19.4225 36.3334 21.1559 36.3334 23.0003C36.3334 24.8448 35.9834 26.5781 35.2834 28.2003C34.5834 29.8225 33.6334 31.2337 32.4334 32.4337C31.2334 33.6337 29.8223 34.5837 28.2001 35.2837C26.5779 35.9837 24.8445 36.3337 23.0001 36.3337ZM23.0001 33.667C25.9779 33.667 28.5001 32.6337 30.5667 30.567C32.6334 28.5003 33.6667 25.9781 33.6667 23.0003C33.6667 20.0225 32.6334 17.5003 30.5667 15.4337C28.5001 13.367 25.9779 12.3337 23.0001 12.3337C20.0223 12.3337 17.5001 13.367 15.4334 15.4337C13.3667 17.5003 12.3334 20.0225 12.3334 23.0003C12.3334 25.9781 13.3667 28.5003 15.4334 30.567C17.5001 32.6337 20.0223 33.667 23.0001 33.667Z" fill="#888888"/>
</svg>
